<mxfile host="app.diagrams.net" modified="2023-04-14T03:52:40.619Z" agent="Mozilla/5.0 (Windows NT 10.0; Win64; x64) AppleWebKit/537.36 (KHTML, like Gecko) Chrome/111.0.0.0 Safari/537.36" etag="n019LYzNHtKrw58SI-8h" version="21.1.1" type="github">
  <diagram name="페이지-1" id="KEzcS6ofJJxTLBglWfZz">
    <mxGraphModel dx="864" dy="513" grid="1" gridSize="10" guides="1" tooltips="1" connect="1" arrows="1" fold="1" page="1" pageScale="1" pageWidth="827" pageHeight="1169" math="0" shadow="0">
      <root>
        <mxCell id="0" />
        <mxCell id="1" parent="0" />
        <mxCell id="YR1mj5dqhPT02lSJ3V2o-5" style="edgeStyle=orthogonalEdgeStyle;rounded=0;orthogonalLoop=1;jettySize=auto;html=1;exitX=1;exitY=0.5;exitDx=0;exitDy=0;entryX=0;entryY=0.5;entryDx=0;entryDy=0;" edge="1" parent="1" source="YR1mj5dqhPT02lSJ3V2o-1" target="YR1mj5dqhPT02lSJ3V2o-4">
          <mxGeometry relative="1" as="geometry" />
        </mxCell>
        <mxCell id="YR1mj5dqhPT02lSJ3V2o-17" style="edgeStyle=orthogonalEdgeStyle;rounded=0;orthogonalLoop=1;jettySize=auto;html=1;exitX=1;exitY=0.5;exitDx=0;exitDy=0;entryX=0;entryY=0.5;entryDx=0;entryDy=0;dashed=1;" edge="1" parent="1" source="YR1mj5dqhPT02lSJ3V2o-1" target="YR1mj5dqhPT02lSJ3V2o-16">
          <mxGeometry relative="1" as="geometry">
            <Array as="points">
              <mxPoint x="110" y="115" />
              <mxPoint x="110" y="190" />
            </Array>
          </mxGeometry>
        </mxCell>
        <mxCell id="YR1mj5dqhPT02lSJ3V2o-1" value="Start" style="ellipse;whiteSpace=wrap;html=1;" vertex="1" parent="1">
          <mxGeometry x="60" y="100" width="40" height="30" as="geometry" />
        </mxCell>
        <mxCell id="YR1mj5dqhPT02lSJ3V2o-8" style="edgeStyle=orthogonalEdgeStyle;rounded=0;orthogonalLoop=1;jettySize=auto;html=1;exitX=1;exitY=0.5;exitDx=0;exitDy=0;entryX=0;entryY=0.5;entryDx=0;entryDy=0;" edge="1" parent="1" source="YR1mj5dqhPT02lSJ3V2o-4" target="YR1mj5dqhPT02lSJ3V2o-7">
          <mxGeometry relative="1" as="geometry" />
        </mxCell>
        <mxCell id="YR1mj5dqhPT02lSJ3V2o-4" value="&lt;font style=&quot;font-size: 9px;&quot;&gt;Transmit using 4-port&lt;/font&gt;" style="rounded=0;whiteSpace=wrap;html=1;" vertex="1" parent="1">
          <mxGeometry x="130" y="105" width="110" height="20" as="geometry" />
        </mxCell>
        <mxCell id="YR1mj5dqhPT02lSJ3V2o-10" style="edgeStyle=orthogonalEdgeStyle;rounded=0;orthogonalLoop=1;jettySize=auto;html=1;exitX=1;exitY=0.5;exitDx=0;exitDy=0;entryX=0;entryY=0.5;entryDx=0;entryDy=0;" edge="1" parent="1" source="YR1mj5dqhPT02lSJ3V2o-7" target="YR1mj5dqhPT02lSJ3V2o-9">
          <mxGeometry relative="1" as="geometry" />
        </mxCell>
        <mxCell id="YR1mj5dqhPT02lSJ3V2o-21" style="edgeStyle=orthogonalEdgeStyle;rounded=0;orthogonalLoop=1;jettySize=auto;html=1;exitX=1;exitY=0.75;exitDx=0;exitDy=0;entryX=0;entryY=0.75;entryDx=0;entryDy=0;dashed=1;" edge="1" parent="1" source="YR1mj5dqhPT02lSJ3V2o-7" target="YR1mj5dqhPT02lSJ3V2o-9">
          <mxGeometry relative="1" as="geometry">
            <Array as="points">
              <mxPoint x="420" y="130" />
            </Array>
          </mxGeometry>
        </mxCell>
        <mxCell id="YR1mj5dqhPT02lSJ3V2o-7" value="&lt;font style=&quot;font-size: 8px;&quot;&gt;The four signals transmitted using the coupler and splitter are received through the rx1 port.&lt;/font&gt;" style="rounded=0;whiteSpace=wrap;html=1;" vertex="1" parent="1">
          <mxGeometry x="270" y="87.5" width="150" height="55" as="geometry" />
        </mxCell>
        <mxCell id="YR1mj5dqhPT02lSJ3V2o-13" style="edgeStyle=orthogonalEdgeStyle;rounded=0;orthogonalLoop=1;jettySize=auto;html=1;exitX=1;exitY=0.5;exitDx=0;exitDy=0;" edge="1" parent="1" source="YR1mj5dqhPT02lSJ3V2o-9" target="YR1mj5dqhPT02lSJ3V2o-12">
          <mxGeometry relative="1" as="geometry" />
        </mxCell>
        <mxCell id="YR1mj5dqhPT02lSJ3V2o-9" value="&lt;font style=&quot;font-size: 10px;&quot;&gt;Calculate phase difference between received signal and reference signal&lt;/font&gt;" style="rounded=0;whiteSpace=wrap;html=1;" vertex="1" parent="1">
          <mxGeometry x="450" y="85" width="100" height="60" as="geometry" />
        </mxCell>
        <mxCell id="YR1mj5dqhPT02lSJ3V2o-11" value="&lt;font style=&quot;font-size: 9px;&quot;&gt;Default&lt;br style=&quot;font-size: 9px;&quot;&gt;All port set to transmit&lt;/font&gt;" style="text;html=1;strokeColor=none;fillColor=none;align=center;verticalAlign=middle;whiteSpace=wrap;rounded=0;" vertex="1" parent="1">
          <mxGeometry x="80" y="57.5" width="60" height="30" as="geometry" />
        </mxCell>
        <mxCell id="YR1mj5dqhPT02lSJ3V2o-12" value="&lt;font style=&quot;font-size: 9px;&quot;&gt;Show phase&amp;amp;time graph about reference signal and received signal.&lt;br style=&quot;font-size: 9px;&quot;&gt;And also show phase difference value calculated in number bar graph.&lt;/font&gt;" style="rounded=0;whiteSpace=wrap;html=1;" vertex="1" parent="1">
          <mxGeometry x="580" y="85" width="170" height="60" as="geometry" />
        </mxCell>
        <mxCell id="YR1mj5dqhPT02lSJ3V2o-19" style="edgeStyle=orthogonalEdgeStyle;rounded=0;orthogonalLoop=1;jettySize=auto;html=1;exitX=1;exitY=0.5;exitDx=0;exitDy=0;entryX=0;entryY=0.75;entryDx=0;entryDy=0;dashed=1;" edge="1" parent="1" source="YR1mj5dqhPT02lSJ3V2o-16" target="YR1mj5dqhPT02lSJ3V2o-7">
          <mxGeometry relative="1" as="geometry">
            <Array as="points">
              <mxPoint x="250" y="190" />
              <mxPoint x="250" y="129" />
            </Array>
          </mxGeometry>
        </mxCell>
        <mxCell id="YR1mj5dqhPT02lSJ3V2o-16" value="&lt;font style=&quot;font-size: 9px;&quot;&gt;Turn on 4 tx ports sequentially one by one.&lt;/font&gt;" style="rounded=0;whiteSpace=wrap;html=1;" vertex="1" parent="1">
          <mxGeometry x="130" y="170" width="110" height="40" as="geometry" />
        </mxCell>
        <mxCell id="YR1mj5dqhPT02lSJ3V2o-18" value="&lt;font style=&quot;font-size: 9px;&quot;&gt;One by one&lt;br&gt;&lt;/font&gt;" style="text;html=1;strokeColor=none;fillColor=none;align=center;verticalAlign=middle;whiteSpace=wrap;rounded=0;" vertex="1" parent="1">
          <mxGeometry x="50" y="142.5" width="60" height="30" as="geometry" />
        </mxCell>
        <mxCell id="YR1mj5dqhPT02lSJ3V2o-24" value="Stores the calculated value for each turned on port." style="rounded=0;whiteSpace=wrap;html=1;" vertex="1" parent="1">
          <mxGeometry x="450" y="160" width="100" height="60" as="geometry" />
        </mxCell>
      </root>
    </mxGraphModel>
  </diagram>
</mxfile>
